<svg xmlns="http://www.w3.org/2000/svg" width="32.466" height="32.405" viewBox="0 0 32.466 32.405">
  <path id="Facebook" d="M1021.441,558.713a1.749,1.749,0,0,1,1.519,1.525c-.006,1.926-.016,3.852-.016,5.778q0,11.559,0,23.119c0,.146.01.292.016.438a1.753,1.753,0,0,1-1.924,1.528c-2.543.012-5.085-.007-7.628.015-.439,0-.521-.154-.52-.545q.017-5.725,0-11.45c0-.448.141-.571.575-.56,1.071.027,2.143,0,3.215.016.341.006.469-.095.51-.443q.241-2.059.544-4.111c.057-.39-.173-.35-.406-.35-1.282,0-2.564-.022-3.845.011-.487.013-.614-.152-.591-.612.051-1.025-.053-2.055.062-3.079a1.79,1.79,0,0,1,1.93-1.81c.86-.039,1.723-.03,2.584-.011.355.008.474-.1.467-.459-.02-1.174-.007-2.349-.008-3.523,0-.206.042-.415-.287-.44a19.308,19.308,0,0,0-5.086.008,5.568,5.568,0,0,0-4.62,5.045,37.864,37.864,0,0,0-.087,4.273c0,.454-.094.626-.587.608-1.049-.039-2.1,0-3.151-.021-.4-.01-.5.123-.493.5.021,1.3.029,2.6,0,3.9-.011.454.178.516.556.51,1.05-.017,2.1.013,3.152-.015.423-.011.524.134.523.535q-.02,5.756,0,11.513c0,.37-.079.507-.483.506-4.98-.014-9.96,0-14.94-.014-1.27,0-1.915-.706-1.917-2.047q-.008-6.983,0-13.966,0-7.172,0-14.344a1.769,1.769,0,0,1,1.539-2.033c.125.008.251.022.376.022q14.358,0,28.717,0C1021.232,558.734,1021.336,558.72,1021.441,558.713Z" transform="translate(-990.493 -558.711)" fill="#00ca88"/>
</svg>
