<svg id="Instagram" xmlns="http://www.w3.org/2000/svg" width="32.783" height="32.783" viewBox="0 0 32.783 32.783">
  <path id="Caminho_7" data-name="Caminho 7" d="M402.709,511.974c0-.06-.005-.117-.007-.176a10.329,10.329,0,0,0-1.093-3.168,8.888,8.888,0,0,0-6.653-4.5,1.769,1.769,0,0,1-.332-.117H378.159a.3.3,0,0,1-.2.074c-.06,0-.117.005-.176.007a10.328,10.328,0,0,0-3.168,1.093,8.888,8.888,0,0,0-4.5,6.653,1.754,1.754,0,0,1-.117.332v16.465a.294.294,0,0,1,.074.2c0,.06.005.117.007.176a10.309,10.309,0,0,0,1.13,3.231,8.89,8.89,0,0,0,6.617,4.44,1.765,1.765,0,0,1,.332.117h16.464a.3.3,0,0,1,.2-.074c.06,0,.118-.005.177-.007a10.309,10.309,0,0,0,3.291-1.168,8.882,8.882,0,0,0,4.378-6.579,1.762,1.762,0,0,1,.117-.332V512.169A.3.3,0,0,1,402.709,511.974Zm-2.853,15.981a6.03,6.03,0,0,1-5.906,5.909q-7.574.064-15.148,0A6.012,6.012,0,0,1,372.931,528q-.064-7.61,0-15.221a6.01,6.01,0,0,1,5.827-5.834q7.646-.066,15.294,0a6.035,6.035,0,0,1,5.8,5.791c.046,2.572.009,5.146.009,7.72h0C399.865,522.954,399.9,525.455,399.857,527.954Z" transform="translate(-370 -504.01)" fill="#00ca88"/>
  <path id="Caminho_8" data-name="Caminho 8" d="M433.123,558.711a8.416,8.416,0,1,0,8.414,8.4A8.379,8.379,0,0,0,433.123,558.711Zm-.09,13.969a5.553,5.553,0,1,1,5.64-5.465A5.6,5.6,0,0,1,433.033,572.68Z" transform="translate(-416.729 -550.736)" fill="#00ca88"/>
  <path id="Caminho_9" data-name="Caminho 9" d="M530.308,541.811a2.109,2.109,0,0,0-2.091,2.081,2.158,2.158,0,0,0,2.121,2.142,2.113,2.113,0,0,0,2.113-2.134A2.078,2.078,0,0,0,530.308,541.811Z" transform="translate(-505.151 -536.3)" fill="#00ca88"/>
</svg>
