<svg xmlns="http://www.w3.org/2000/svg" width="209.012" height="59.791" viewBox="0 0 209.012 59.791">
  <g id="logo" transform="translate(-97 -8.209)">
    <g id="Grupo_2" data-name="Grupo 2" transform="translate(-114 229.2)">
      <g id="Grupo_1" data-name="Grupo 1" transform="translate(386.335 -223.227) rotate(17)">
        <path id="União_1" data-name="União 1" d="M5.156,10.779a5.006,5.006,0,0,1-.725.053A4.207,4.207,0,0,1,0,6.893a3.643,3.643,0,0,1,.874-2.35L.831,4.459l.278-.173A4.482,4.482,0,0,1,2.826,3.22L5.163,1.77A4.591,4.591,0,0,1,8.862,0a4.781,4.781,0,0,1,2.674.8h.006l.027.022a4.309,4.309,0,0,1,.563.461l2.45,2a3.954,3.954,0,0,1,2.65,3.608A4.194,4.194,0,0,1,12.9,10.831l-.029.059Z" transform="translate(4.086 11.923)" fill="#00ca88"/>
        <path id="União_2" data-name="União 2" d="M3.679,7.691a3.572,3.572,0,0,1-.517.037A3,3,0,0,1,0,4.918,2.6,2.6,0,0,1,.624,3.242l-.031-.06.2-.123A3.2,3.2,0,0,1,2.017,2.3L3.683,1.263A3.276,3.276,0,0,1,6.323,0,3.411,3.411,0,0,1,8.231.569h0l.02.016a3.074,3.074,0,0,1,.4.329L10.4,2.344A2.821,2.821,0,0,1,12.3,4.918,2.993,2.993,0,0,1,9.2,7.728l-.02.042Z" transform="translate(25.563 24.398)" fill="#00ca88"/>
        <ellipse id="Elipse_2" data-name="Elipse 2" cx="3.868" cy="3.186" rx="3.868" ry="3.186" transform="matrix(0.087, 0.996, -0.996, 0.087, 6.347, 6.821)" fill="#00ca88"/>
        <ellipse id="Elipse_14" data-name="Elipse 14" cx="2.76" cy="2.273" rx="2.76" ry="2.273" transform="matrix(0.087, 0.996, -0.996, 0.087, 27.177, 20.758)" fill="#00ca88"/>
        <ellipse id="Elipse_5" data-name="Elipse 5" cx="3.868" cy="3.186" rx="3.868" ry="3.186" transform="matrix(-0.326, 0.946, -0.946, -0.326, 26.97, 8.332)" fill="#00ca88"/>
        <ellipse id="Elipse_8" data-name="Elipse 8" cx="2.76" cy="2.273" rx="2.76" ry="2.273" transform="matrix(-0.326, 0.946, -0.946, -0.326, 41.891, 21.836)" fill="#00ca88"/>
        <ellipse id="Elipse_3" data-name="Elipse 3" cx="4.551" cy="3.186" rx="4.551" ry="3.186" transform="matrix(0.087, 0.996, -0.996, 0.087, 12.181, 0)" fill="#00ca88"/>
        <ellipse id="Elipse_13" data-name="Elipse 13" cx="3.247" cy="2.273" rx="3.247" ry="2.273" transform="matrix(0.087, 0.996, -0.996, 0.087, 31.34, 15.891)" fill="#00ca88"/>
        <ellipse id="Elipse_4" data-name="Elipse 4" cx="4.551" cy="3.186" rx="4.551" ry="3.186" transform="matrix(-0.07, 0.998, -0.998, -0.07, 20.181, 0.494)" fill="#00ca88"/>
        <ellipse id="Elipse_12" data-name="Elipse 12" cx="3.247" cy="2.273" rx="3.247" ry="2.273" transform="matrix(-0.07, 0.998, -0.998, -0.07, 37.048, 16.243)" fill="#00ca88"/>
      </g>
      <text id="Amigão" transform="translate(211 -171.2)" fill="#00ca88" font-size="44" font-family="urbane-rounded" font-weight="600"><tspan x="0" y="0">Amigão</tspan></text>
    </g>
    <path id="União_3" data-name="União 3" d="M3.679,7.691a3.572,3.572,0,0,1-.517.037A3,3,0,0,1,0,4.918,2.6,2.6,0,0,1,.624,3.242l-.031-.06.2-.123A3.2,3.2,0,0,1,2.017,2.3L3.683,1.263A3.276,3.276,0,0,1,6.323,0,3.411,3.411,0,0,1,8.231.569h0l.02.016a3.074,3.074,0,0,1,.4.329L10.4,2.344A2.821,2.821,0,0,1,12.3,4.918,2.993,2.993,0,0,1,9.2,7.728l-.02.042Z" transform="translate(289.648 36.778) rotate(17)" fill="#00ca88"/>
    <ellipse id="Elipse_18" data-name="Elipse 18" cx="2.76" cy="2.273" rx="2.76" ry="2.273" transform="matrix(-0.208, 0.978, -0.978, -0.208, 292.255, 33.769)" fill="#00ca88"/>
    <ellipse id="Elipse_19" data-name="Elipse 19" cx="2.76" cy="2.273" rx="2.76" ry="2.273" transform="translate(306.012 39.102) rotate(126)" fill="#00ca88"/>
    <ellipse id="Elipse_20" data-name="Elipse 20" cx="3.247" cy="2.273" rx="3.247" ry="2.273" transform="matrix(-0.208, 0.978, -0.978, -0.208, 297.659, 30.332)" fill="#00ca88"/>
    <ellipse id="Elipse_21" data-name="Elipse 21" cx="3.247" cy="2.273" rx="3.247" ry="2.273" transform="translate(303.014 32.337) rotate(111)" fill="#00ca88"/>
  </g>
</svg>
