<svg xmlns="http://www.w3.org/2000/svg" width="399.948" height="111.747" viewBox="0 0 399.948 111.747">
  <g id="logo_verde" data-name="logo verde" transform="translate(-211 218.947)">
    <g id="Grupo_1" data-name="Grupo 1" transform="translate(546.506 -223.227) rotate(17)">
      <path id="União_1" data-name="União 1" d="M9.867,20.626a9.579,9.579,0,0,1-1.388.1C3.8,20.727,0,17.353,0,13.19a6.972,6.972,0,0,1,1.673-4.5L1.59,8.533l.532-.33a8.577,8.577,0,0,1,3.287-2.04l4.47-2.775A8.785,8.785,0,0,1,16.958,0a9.148,9.148,0,0,1,5.118,1.527h.011l.053.043a8.245,8.245,0,0,1,1.077.881L27.9,6.287a7.566,7.566,0,0,1,5.071,6.9c0,4.108-3.7,7.448-8.3,7.535l-.055.112Z" transform="translate(7.818 22.816)" fill="#00ca88"/>
      <path id="União_2" data-name="União 2" d="M7.04,14.717a6.835,6.835,0,0,1-.99.072C2.709,14.788,0,12.381,0,9.411A4.974,4.974,0,0,1,1.194,6.2l-.059-.115.38-.236A6.119,6.119,0,0,1,3.859,4.4l3.189-1.98A6.268,6.268,0,0,1,12.1,0a6.527,6.527,0,0,1,3.651,1.09h.008l.038.031a5.882,5.882,0,0,1,.769.629l3.344,2.736a5.4,5.4,0,0,1,3.618,4.926c0,2.931-2.638,5.314-5.919,5.376l-.039.08Z" transform="translate(48.916 46.686)" fill="#00ca88"/>
      <ellipse id="Elipse_2" data-name="Elipse 2" cx="7.402" cy="6.096" rx="7.402" ry="6.096" transform="matrix(0.087, 0.996, -0.996, 0.087, 12.145, 13.052)" fill="#00ca88"/>
      <ellipse id="Elipse_14" data-name="Elipse 14" cx="5.281" cy="4.349" rx="5.281" ry="4.349" transform="matrix(0.087, 0.996, -0.996, 0.087, 52.004, 39.72)" fill="#00ca88"/>
      <ellipse id="Elipse_5" data-name="Elipse 5" cx="7.402" cy="6.096" rx="7.402" ry="6.096" transform="matrix(-0.326, 0.946, -0.946, -0.326, 51.608, 15.943)" fill="#00ca88"/>
      <ellipse id="Elipse_8" data-name="Elipse 8" cx="5.281" cy="4.349" rx="5.281" ry="4.349" transform="matrix(-0.326, 0.946, -0.946, -0.326, 80.16, 41.783)" fill="#00ca88"/>
      <ellipse id="Elipse_3" data-name="Elipse 3" cx="8.708" cy="6.096" rx="8.708" ry="6.096" transform="matrix(0.087, 0.996, -0.996, 0.087, 23.309, 0)" fill="#00ca88"/>
      <ellipse id="Elipse_13" data-name="Elipse 13" cx="6.213" cy="4.349" rx="6.213" ry="4.349" transform="matrix(0.087, 0.996, -0.996, 0.087, 59.969, 30.408)" fill="#00ca88"/>
      <ellipse id="Elipse_4" data-name="Elipse 4" cx="8.708" cy="6.096" rx="8.708" ry="6.096" transform="matrix(-0.07, 0.998, -0.998, -0.07, 38.617, 0.945)" fill="#00ca88"/>
      <ellipse id="Elipse_12" data-name="Elipse 12" cx="6.213" cy="4.349" rx="6.213" ry="4.349" transform="matrix(-0.07, 0.998, -0.998, -0.07, 70.891, 31.082)" fill="#00ca88"/>
    </g>
    <text id="Amigão" transform="translate(211 -125.2)" fill="#00ca88" font-size="84" font-family="UrbaneRounded-DemiBold, Urbane Rounded" font-weight="300"><tspan x="0" y="0">Amigão</tspan></text>
  </g>
</svg>
