<svg xmlns="http://www.w3.org/2000/svg" width="32.667" height="32.669" viewBox="0 0 32.667 32.669">
  <path id="Caminho_10" data-name="Caminho 10" d="M864.432,91.171q-15.92.014-31.839,0c-.342,0-.411.086-.41.416q.014,15.921,0,31.842c0,.341.086.411.416.41q7.96-.017,15.92-.008t15.919.009c.342,0,.411-.086.41-.417q-.014-15.921,0-31.842C864.849,91.24,864.762,91.171,864.432,91.171ZM857.308,113.4a.568.568,0,0,0,.194.464c.544.5,1.074,1.017,1.616,1.521a.543.543,0,0,1,.191.428c0,.212-.078.251-.269.251q-4.076-.008-8.152-.006c-.091,0-.224.055-.256-.091a.46.46,0,0,1,.143-.48c.565-.516,1.115-1.049,1.676-1.57a.567.567,0,0,0,.211-.457q-.011-4.785-.007-9.569c0-.067.033-.146-.058-.225-.607,1.532-1.208,3.052-1.811,4.571q-1.478,3.722-2.957,7.443c-.077.194-.1.4-.417.393a.538.538,0,0,1-.572-.354q-2.6-5.732-5.223-11.452a.874.874,0,0,0-.222-.318c0,.119,0,.239,0,.358-.022,2.6-.042,5.205-.073,7.808a.893.893,0,0,0,.243.648c.755.864,1.5,1.741,2.242,2.613.041.048.083.1.123.146a.476.476,0,0,1,.037.439c-.043.174-.215.094-.328.094q-2.775.008-5.55,0c-.149,0-.374.11-.439-.088a.644.644,0,0,1,.1-.611c.636-.845,1.25-1.707,1.883-2.554a1.089,1.089,0,0,0,.236-.7q0-5,.026-9.99a.938.938,0,0,0-.227-.658c-.624-.741-1.234-1.495-1.848-2.244a1.283,1.283,0,0,1-.142-.18c-.189-.342-.042-.6.343-.6,1.9,0,3.8.006,5.7-.007a.469.469,0,0,1,.507.333q2.279,5.081,4.58,10.152l.145.32c.147-.363.273-.665.393-.97q1.886-4.75,3.764-9.5a.447.447,0,0,1,.5-.332c1.773.012,3.547,0,5.32.011.121,0,.321-.089.352.1s.076.389-.13.556c-.554.45-1.084.93-1.636,1.384a.6.6,0,0,0-.247.515Q857.3,107.2,857.308,113.4Z" transform="translate(-832.182 -91.17)" fill="#fff"/>
</svg>
