<svg xmlns="http://www.w3.org/2000/svg" width="23.013" height="23.118" viewBox="0 0 23.013 23.118">
  <path id="Patinhas" d="M-85.239,423.219l-.023.022-3.527-1.484a2.489,2.489,0,0,1-.343-.111,2.086,2.086,0,0,1-1.306-2.634,1.811,1.811,0,0,1,.839-.919l0-.047.16-.027a2.218,2.218,0,0,1,.987-.172l1.344-.232a2.278,2.278,0,0,1,2.031-.127,2.371,2.371,0,0,1,1.082.864h0l.009.015a2.171,2.171,0,0,1,.173.317l.754,1.377a1.959,1.959,0,0,1,.549,2.151,1.959,1.959,0,0,1-1.863,1.167A2.421,2.421,0,0,1-85.239,423.219Zm3.563-2.918a1.774,1.774,0,0,1,.067-2.485,1.774,1.774,0,0,1,2.452-.411,1.776,1.776,0,0,1-.067,2.485,2.068,2.068,0,0,1-1.524.744A1.394,1.394,0,0,1-81.676,420.3Zm-8.127-3.179a1.773,1.773,0,0,1-.95-2.3,1.775,1.775,0,0,1,2.072-1.373,1.776,1.776,0,0,1,.95,2.3,1.888,1.888,0,0,1-1.686,1.43A1.323,1.323,0,0,1-89.8,417.122Zm6.772-.182c-.785-.383-.977-1.6-.431-2.722s1.625-1.719,2.41-1.337.977,1.6.43,2.722a2.343,2.343,0,0,1-1.9,1.452A1.157,1.157,0,0,1-83.03,416.94Zm-3.02-1.223c-.834-.256-1.216-1.429-.851-2.621s1.336-1.952,2.172-1.7,1.215,1.429.85,2.621a2.22,2.22,0,0,1-1.839,1.747A1.133,1.133,0,0,1-86.05,415.717Zm-8.2-2.269-.022.027-4.137-1.094a2.69,2.69,0,0,1-.4-.069,2.334,2.334,0,0,1-1.858-2.714,2.03,2.03,0,0,1,.787-1.148l-.012-.051.173-.055A2.473,2.473,0,0,1-98.65,408l1.453-.467a2.545,2.545,0,0,1,2.229-.456,2.657,2.657,0,0,1,1.333.788h0l.012.015a2.363,2.363,0,0,1,.241.324l1.05,1.408a2.195,2.195,0,0,1,.942,2.3,2.243,2.243,0,0,1-2.249,1.608A2.745,2.745,0,0,1-94.25,413.448Zm3.493-3.787a1.984,1.984,0,0,1-.313-2.762,1.984,1.984,0,0,1,2.651-.838,1.985,1.985,0,0,1,.313,2.763,2.243,2.243,0,0,1-1.816,1.079A1.52,1.52,0,0,1-90.757,409.661Zm-9.5-2.255a1.985,1.985,0,0,1-1.409-2.4,1.984,1.984,0,0,1,2.082-1.843,1.985,1.985,0,0,1,1.409,2.4,2.05,2.05,0,0,1-1.852,1.861A1.474,1.474,0,0,1-100.255,407.406Zm7.474-1.256c-.929-.3-1.332-1.621-.9-2.948s1.533-2.157,2.461-1.856,1.332,1.622.9,2.948a2.5,2.5,0,0,1-2.068,1.917A1.271,1.271,0,0,1-92.781,406.149Zm-3.535-.885c-.964-.153-1.569-1.393-1.351-2.77s1.177-2.371,2.141-2.218,1.569,1.393,1.351,2.77c-.2,1.283-1.049,2.233-1.944,2.233A1.259,1.259,0,0,1-96.316,405.265Z" transform="translate(101.696 -400.261)" fill="#00ca88"/>
</svg>
